<svg viewBox="0 0 32 32">
  <path d=" M 16.476 12.168 L 16.408 17.271 L 15.592 17.271 L 15.529 12.168 L 16.476 12.168 Z  M 15.495 18.823 L 15.495 18.823 L 15.495 18.823 Q 15.495 18.604 15.629 18.455 L 15.629 18.455 L 15.629 18.455 Q 15.763 18.306 16.027 18.306 L 16.027 18.306 L 16.027 18.306 Q 16.291 18.306 16.427 18.455 L 16.427 18.455 L 16.427 18.455 Q 16.564 18.604 16.564 18.823 L 16.564 18.823 L 16.564 18.823 Q 16.564 19.043 16.427 19.187 L 16.427 19.187 L 16.427 19.187 Q 16.291 19.331 16.027 19.331 L 16.027 19.331 L 16.027 19.331 Q 15.763 19.331 15.629 19.187 L 15.629 19.187 L 15.629 19.187 Q 15.495 19.043 15.495 18.823 Z  M 8 10 L 24 10 L 24 20 L 8 20 M 24 22 C 25.105 22 26 21.105 26 20 L 26 10 C 26 8.89 25.1 8 24 8 L 8 8 C 6.89 8 6 8.89 6 10 L 6 20 C 6 21.105 6.895 22 8 22 L 4 22 L 4 24 L 28 24 L 28 22 L 24 22 Z "/>
</svg>
